<!-- icon666.com - MILLIONS vector ICONS FREE --><svg version="1.1" id="Capa_1" xmlns="http://www.w3.org/2000/svg" xmlns:xlink="http://www.w3.org/1999/xlink" x="0px" y="0px" viewBox="0 0 512 512" style="enable-background:new 0 0 512 512;" xml:space="preserve"><path style="fill: rgb(213, 222, 227); --darkreader-inline-fill: #fffce3;" d="M487.981,208.005c-20.521,20.521-49.193,27.858-75.6,22.128l-91.174,91.184l-35.426,35.426 L164.244,478.28c-17.337,17.337-45.446,17.337-62.783,0s-17.337-45.446,0-62.783l156.963-156.963l91.174-91.184 c-5.72-26.407,1.607-55.069,22.138-75.6c21.554-21.554,52.084-28.558,79.546-21.168l-58.702,58.691l11.283,46.604l46.594,11.273 l58.702-58.691C516.549,155.921,509.535,186.451,487.981,208.005z" data-darkreader-inline-fill=""></path><rect x="247.046" y="263.248" transform="matrix(-0.7071 0.7071 -0.7071 -0.7071 682.0287 332.7729)" style="fill: rgb(194, 201, 204); --darkreader-inline-fill: #faecd3;" width="50.099" height="88.783" data-darkreader-inline-fill=""></rect><path style="fill: rgb(148, 166, 173); --darkreader-inline-fill: #dbcdb5;" d="M257.679,295.563l-63.973,63.973c-4.353,4.363-4.353,11.419,0,15.782l10.72,10.709 c4.353,4.353,11.419,4.353,15.771,0l63.973-63.973" data-darkreader-inline-fill=""></path><rect x="183.717" y="176.796" transform="matrix(0.7071 0.7071 -0.7071 0.7071 218.2901 -105.4479)" style="fill: rgb(113, 127, 136); --darkreader-inline-fill: #c3b69e;" width="105.431" height="67.959" data-darkreader-inline-fill=""></rect><rect x="168.977" y="212.388" transform="matrix(0.7071 0.7071 -0.7071 0.7071 224.4017 -90.7057)" style="fill: rgb(93, 105, 112); --darkreader-inline-fill: #d5c7af;" width="105.431" height="26.272" data-darkreader-inline-fill=""></rect><path style="fill: rgb(181, 128, 88); --darkreader-inline-fill: #d8b48f;" d="M291.567,202.391l206.746,206.746c17.769,17.769,17.511,46.842-0.773,64.285 c-17.751,16.927-46,15.998-63.348-1.35L228.038,265.918c-2.983-2.983-2.983-7.815,0-10.797l2.338-2.338l48.054-48.054l2.338-2.338 C283.753,199.408,288.583,199.408,291.567,202.391z" data-darkreader-inline-fill=""></path><path style="fill: rgb(142, 96, 71); --darkreader-inline-fill: #dcba9d;" d="M451.936,454.327L245.783,248.175c-2.983-2.983-2.983-7.815,0-10.798l-15.406,15.406l-2.338,2.338 c-2.983,2.983-2.983,7.815,0,10.798l206.153,206.152c17.348,17.349,45.596,18.276,63.348,1.35c3.444-3.286,6.248-6.985,8.413-10.944 C488.693,471.868,466.483,468.875,451.936,454.327z" data-darkreader-inline-fill=""></path><path style="fill: rgb(113, 127, 136); --darkreader-inline-fill: #c3b69e;" d="M355.032,36.708c-43.922,19.498-93.48,64.61-111.715,96.163l-49.322,27.597l-31.312-21.918 l26.42-59.935l0.021-0.021c12.452-12.463,21.502-21.512,22.483-22.483C248.578,19.141,307.123,8.567,355.032,36.708z" data-darkreader-inline-fill=""></path><g><path style="fill: rgb(93, 105, 112); --darkreader-inline-fill: #d5c7af;" d="M355.032,36.708c-43.922,19.498-93.48,64.61-111.715,96.163l-17.16-17.16l-3.027-3.037 c2.213-4.78,3.611-7.807,3.893-8.413C249.027,56.832,300.359,26.76,355.032,36.708z" data-darkreader-inline-fill=""></path><path style="fill: rgb(93, 105, 112); --darkreader-inline-fill: #d5c7af;" d="M95.017,149.23l66.885,16.718l11.497,61.664l-1.822,2.734c-10.754-5.356-25.893-2.08-36.854,8.88 c-10.892,10.892-14.193,25.918-8.958,36.655l-1.169,0.533l-58.196-11.834l-20.188-66.549l0.585-1.272 c10.72,5.047,25.575,1.711,36.371-9.086c10.977-10.977,14.253-26.167,8.846-36.922L95.017,149.23z" data-darkreader-inline-fill=""></path></g><path style="fill: rgb(113, 127, 136); --darkreader-inline-fill: #c3b69e;" d="M46.8,196.76l-0.585,1.272l78.383,78.383l1.169-0.533c0.997,2.064,2.321,3.972,3.955,5.656 l-40.791,40.791L0,233.398l40.791-40.791C42.57,194.353,44.59,195.737,46.8,196.76z" data-darkreader-inline-fill=""></path><path style="fill: rgb(93, 105, 112); --darkreader-inline-fill: #d5c7af;" d="M105.982,255.942l-0.828,1.029l23.06,23.06l0.945-0.758c-0.082,0.983,0.1,1.75,0.563,2.265 l-40.791,40.791l-26.163-26.163l40.791-40.791C104.093,255.877,104.913,256.06,105.982,255.942z" data-darkreader-inline-fill=""></path><path style="fill: rgb(113, 127, 136); --darkreader-inline-fill: #c3b69e;" d="M160.557,72.841c6.298-6.298,16.51-6.293,22.802,0.011l5.746,5.757l37.051,37.102l17.159,17.159 l6.142,6.142c6.294,6.294,6.294,16.497,0,22.791l-6.976,6.976l-0.008-0.008l-48.054,48.054l0.008,0.008l-17.382,17.382 c-1.642-1.591-3.482-2.88-5.467-3.868l1.822-2.734l-78.383-78.383l-3,1.522c-0.997-1.995-2.304-3.834-3.903-5.467L160.557,72.841z" data-darkreader-inline-fill=""></path></svg>